<svg width="27" height="29" viewBox="0 0 27 29" fill="none" xmlns="http://www.w3.org/2000/svg">
<path d="M15.8369 14.1064C21.787 14.1064 26.6104 19.1667 26.6104 25.4092C26.6103 27.2818 25.1638 28.7996 23.3789 28.7998H3.23242C1.44743 28.7998 3.83182e-05 27.2819 0 25.4092C0 19.1668 4.82342 14.1065 10.7734 14.1064H15.8369ZM12.8428 17.0576C12.5802 17.0576 12.3562 17.2478 12.3135 17.5068L11.334 23.4629C11.3063 23.631 11.3606 23.8028 11.4795 23.9248L12.918 25.4004C13.1285 25.6164 13.4759 25.6163 13.6865 25.4004L15.1309 23.9189C15.2506 23.7962 15.3041 23.6232 15.2754 23.4541L14.2646 17.5039C14.2207 17.2462 13.9968 17.0576 13.7354 17.0576H12.8428ZM12.6553 14.4004C12.3187 14.4004 12.065 14.7065 12.1279 15.0371L12.3271 16.084C12.3753 16.337 12.5969 16.5205 12.8545 16.5205H13.7549C14.013 16.5205 14.2346 16.3367 14.2822 16.083L14.4795 15.0352C14.5413 14.7051 14.2879 14.4005 13.9521 14.4004H12.6553ZM13.3057 0C16.3995 0.000196277 18.9072 2.63197 18.9072 5.87793C18.907 9.12372 16.3994 11.7547 13.3057 11.7549C10.2118 11.7549 7.70332 9.12384 7.70312 5.87793C7.70312 2.63185 10.2116 0 13.3057 0Z" fill="url(#paint0_linear_6584_285)"/>
<defs>
<linearGradient id="paint0_linear_6584_285" x1="7.94944" y1="3.18224" x2="22.0729" y2="29.4921" gradientUnits="userSpaceOnUse">
<stop stop-color="#FF4040"/>
<stop offset="1" stop-color="#FFD940"/>
</linearGradient>
</defs>
</svg>
