<svg width="35" height="35" viewBox="0 0 35 35" fill="none" xmlns="http://www.w3.org/2000/svg">
<path d="M3.3945 22.5879C-1.13152 20.406 -1.13152 13.9602 3.3945 11.7783L7.1625 9.9619C8.38541 9.37237 9.37224 8.38553 9.96177 7.16262L11.7782 3.39462C13.9601 -1.1314 20.4059 -1.1314 22.5877 3.39462L24.4042 7.16262C24.9937 8.38553 25.9806 9.37237 27.2035 9.9619L30.9715 11.7783C35.4975 13.9602 35.4975 20.406 30.9715 22.5879L27.2035 24.4043C25.9806 24.9938 24.9937 25.9807 24.4042 27.2036L22.5877 30.9716C20.4059 35.4976 13.9601 35.4976 11.7782 30.9716L9.96177 27.2036C9.37224 25.9807 8.38541 24.9938 7.1625 24.4043L3.3945 22.5879Z" fill="url(#paint0_linear_6638_976)"/>
<defs>
<linearGradient id="paint0_linear_6638_976" x1="9.55697" y1="32.0524" x2="38.4763" y2="-0.153282" gradientUnits="userSpaceOnUse">
<stop stop-color="#FAA2FF"/>
<stop offset="1" stop-color="#7A38FF"/>
</linearGradient>
</defs>
</svg>
